<svg id="Group_306" data-name="Group 306" xmlns="http://www.w3.org/2000/svg" width="82.325" height="52.987" viewBox="0 0 82.325 52.987">
  <path id="Path_137" data-name="Path 137" d="M73.346,364.364c-7.061.023-13.462-2.234-19.464-5.747A74.7,74.7,0,0,1,32.855,339.79c-1.077-1.372-1.175-2.286-.237-3.49,7.02-8.994,15.245-16.576,25.686-21.443,11.894-5.545,23.382-4.242,34.466,2.355a74.044,74.044,0,0,1,20.535,18.6c1.32,1.7,1.331,2.437.017,4.115-7.02,8.931-15.2,16.489-25.668,21.247A34.4,34.4,0,0,1,73.346,364.364Zm-.041-9.619a16.866,16.866,0,0,0,.029-33.731,16.868,16.868,0,1,0-.029,33.731Z" transform="translate(-31.976 -311.378)" fill="#fff"/>
  <path id="Path_138" data-name="Path 138" d="M45.35,329.113a7.21,7.21,0,1,1,.093-14.4,7.2,7.2,0,1,1-.093,14.4Z" transform="translate(-4.055 -295.411)" fill="#fff"/>
</svg>
