<svg id="Group_307" data-name="Group 307" xmlns="http://www.w3.org/2000/svg" width="66.044" height="66.011" viewBox="0 0 66.044 66.011">
  <path id="Path_139" data-name="Path 139" d="M88.815,402.483c3.28.332,4.286-2.705,6.4-4.058,5.386,10.1,4.91,27.143-7.72,38.505a32.986,32.986,0,1,1-7.938-54.321c-.956.956-1.843,1.9-2.79,2.78a3.982,3.982,0,0,0-1.377,3.672c-7.492-2.884-14.741-2.7-21.772.981a24.55,24.55,0,0,0-11.05,11.565,25.309,25.309,0,0,0,36.364,32.2A25.572,25.572,0,0,0,88.815,402.483Z" transform="translate(-32.423 -379.389)" fill="#fff"/>
  <path id="Path_140" data-name="Path 140" d="M60.877,384.39c-1.932,1.937-3.781,3.815-5.673,5.649a1.418,1.418,0,0,1-1,.2,9.9,9.9,0,1,0,8.785,9.038,1.909,1.909,0,0,1,.644-1.724c1.729-1.685,3.419-3.409,5.143-5.133,3.062,4.905,3.008,14.206-3.459,20.39a17.6,17.6,0,0,1-26.36-23.12A17.368,17.368,0,0,1,60.877,384.39Z" transform="translate(-20.123 -367.099)" fill="#fff"/>
  <path id="Path_141" data-name="Path 141" d="M63.833,385.294c2.482-1.987,4.187-2.18,5.664-.778,1.491,1.417,1.348,3.092-.609,5.783,1.487,0,2.859-.059,4.222.03.55.039,1.348.282,1.531.669.173.362-.178,1.174-.545,1.556q-3.389,3.523-6.917,6.917a2.9,2.9,0,0,1-1.719.7c-1.9.089-3.81-.015-5.713.064a2.628,2.628,0,0,0-1.605.654Q51.324,407.611,44.6,414.4a3.707,3.707,0,0,1-3.013,1.308,3.185,3.185,0,0,1-2.928-2.146,3.313,3.313,0,0,1,.808-3.741c2.79-2.81,5.594-5.6,8.389-8.4,1.814-1.814,3.652-3.6,5.421-5.46a2.5,2.5,0,0,0,.624-1.511c.074-1.942-.02-3.885.059-5.827A2.706,2.706,0,0,1,54.622,387c2.284-2.378,4.623-4.707,6.991-7,.362-.352,1.174-.718,1.462-.55a2.121,2.121,0,0,1,.728,1.506C63.9,382.331,63.833,383.713,63.833,385.294Z" transform="translate(-8.804 -379.309)" fill="#fff"/>
</svg>
