<svg id="Group_308" data-name="Group 308" xmlns="http://www.w3.org/2000/svg" width="70.503" height="59.82" viewBox="0 0 70.503 59.82">
  <path id="Path_142" data-name="Path 142" d="M52.139,471.55H38.617c-2.19,0-2.829-.634-2.829-2.814,0-6.417-.02-12.833,0-19.25.025-6.491,4.281-10.728,10.767-10.752,3.776-.01,7.551-.015,11.327,0,6.357.025,10.643,4.261,10.683,10.6.035,6.526.015,13.051,0,19.577,0,1.952-.7,2.626-2.686,2.626Q59.017,471.56,52.139,471.55Z" transform="translate(-16.917 -411.738)" fill="#fff"/>
  <path id="Path_143" data-name="Path 143" d="M61.051,445.671a12.212,12.212,0,1,1-11.9-12.382A12.2,12.2,0,0,1,61.051,445.671Z" transform="translate(-13.575 -433.278)" fill="#fff"/>
  <path id="Path_144" data-name="Path 144" d="M47.3,439.82c-1.026,8.622-.322,17.164-.491,25.686a11.751,11.751,0,0,0,.168,1.591c-.109.079-.164.159-.223.159-3.146-.015-6.308.114-9.444-.1a5.745,5.745,0,0,1-5.262-5.693c-.084-4.068-.124-8.146.01-12.214a10.058,10.058,0,0,1,9.5-9.414C43.49,439.761,45.432,439.82,47.3,439.82Z" transform="translate(-31.971 -407.499)" fill="#fff"/>
  <path id="Path_145" data-name="Path 145" d="M43.6,467.278c-.233-9.2.486-18.279-.486-27.46,2.785.164,5.787-.451,8.706.659a10.169,10.169,0,0,1,6.526,9.231c.05,3.815.045,7.631,0,11.446a5.874,5.874,0,0,1-5.51,6.05c-2.77.218-5.564.094-8.349.119C44.169,467.327,43.847,467.293,43.6,467.278Z" transform="translate(12.117 -407.516)" fill="#fff"/>
  <path id="Path_146" data-name="Path 146" d="M41.995,453.857a9.137,9.137,0,1,1,9.187-9.147A9.108,9.108,0,0,1,41.995,453.857Z" transform="translate(-28.252 -424.161)" fill="#fff"/>
  <path id="Path_147" data-name="Path 147" d="M50.724,453.861a9.139,9.139,0,1,1,9.122-9.082A9.155,9.155,0,0,1,50.724,453.861Z" transform="translate(6.018 -424.165)" fill="#fff"/>
</svg>
