<svg xmlns="http://www.w3.org/2000/svg" width="70.42" height="70.46" viewBox="0 0 70.42 70.46">
  <g id="Group_310" data-name="Group 310" transform="translate(0 0)">
    <path id="Path_148" data-name="Path 148" d="M50,490.5c2.76.2,5.168.421,7.586.535a2.479,2.479,0,0,0,1.546-.52c1.313-1.055,2.537-2.22,3.805-3.33a6.133,6.133,0,0,1,8.488-.02c1.3,1.13,2.552,2.319,3.885,3.4a2.345,2.345,0,0,0,1.462.471c2.339-.119,4.677-.352,7.016-.505a6.19,6.19,0,0,1,6.942,5.054c.451,1.774.8,3.578,1.318,5.332a2.832,2.832,0,0,0,1.075,1.491c2,1.293,4.083,2.463,6.114,3.706A6.086,6.086,0,0,1,101.869,514c-.788,1.977-1.655,3.92-2.4,5.906a2.333,2.333,0,0,0,0,1.536c.713,1.883,1.526,3.726,2.289,5.594,1.417,3.458.476,6.367-2.71,8.309-1.972,1.2-3.989,2.334-5.926,3.588a2.881,2.881,0,0,0-1.075,1.5c-.55,1.9-.927,3.845-1.452,5.753a6.061,6.061,0,0,1-6.585,4.643c-2.3-.158-4.608-.337-6.9-.565a2.188,2.188,0,0,0-1.883.614c-1.234,1.15-2.512,2.25-3.791,3.35a6.126,6.126,0,0,1-8.483-.005c-1.333-1.154-2.621-2.354-3.984-3.468a2.168,2.168,0,0,0-1.358-.476c-2.339.134-4.677.352-7.016.54a6.174,6.174,0,0,1-6.838-4.752c-.51-1.878-.956-3.766-1.368-5.664a2.235,2.235,0,0,0-1.179-1.59c-2.041-1.16-4.053-2.369-6.055-3.588a6.086,6.086,0,0,1-2.631-7.883c.783-1.977,1.65-3.919,2.4-5.906a2.332,2.332,0,0,0,0-1.536c-.753-1.987-1.615-3.929-2.4-5.9a6.076,6.076,0,0,1,2.641-7.878c1.754-1.065,3.513-2.13,5.3-3.132a2.738,2.738,0,0,0,1.368-1.729c.619-2.071,1.318-4.118,1.972-6.179A6.047,6.047,0,0,1,50,490.5Zm17.134,52.87A22.669,22.669,0,1,0,44.525,520.64,22.656,22.656,0,0,0,67.135,543.369Z" transform="translate(-31.983 -485.469)" fill="#fff"/>
    <path id="Path_149" data-name="Path 149" d="M51.676,503.462c2.978-2.978,5.966-5.951,8.929-8.949a2.054,2.054,0,1,0-2.884-2.914c-.431.4-.832.823-1.249,1.239-3.146,3.166-6.3,6.332-9.6,9.647-2.284-2.3-4.435-4.5-6.615-6.674a2.018,2.018,0,0,0-3.1-.144,2.089,2.089,0,0,0,.2,3.032q3.9,3.947,7.849,7.854a2.105,2.105,0,0,0,3.359.015C49.615,505.548,50.64,504.5,51.676,503.462Z" transform="translate(-13.739 -463.916)" fill="#fff"/>
  </g>
</svg>
