<svg xmlns="http://www.w3.org/2000/svg" width="12.461" height="8.035" viewBox="0 0 12.461 8.035">
  <path id="arrow_left" d="M-22.467,1026.858l-3.515-3.013c-.63-.541-1.263-1.079-1.889-1.624a.841.841,0,0,1-.3-.893.866.866,0,0,1,.648-.648.951.951,0,0,1,.907.286q1.826,1.57,3.656,3.135c.782.67,1.567,1.336,2.344,2.011a.9.9,0,0,1-.011,1.521q-3.025,2.594-6.057,5.181a.885.885,0,0,1-1.348-.028.916.916,0,0,1,.223-1.336l5.045-4.321C-22.672,1027.051-22.586,1026.968-22.467,1026.858Z" transform="translate(1033.11 28.233) rotate(90)"/>
</svg>
