<svg xmlns="http://www.w3.org/2000/svg" width="40.005" height="40" viewBox="0 0 40.005 40">
  <path id="Path_195" data-name="Path 195" d="M6007.948,5990.184a5.435,5.435,0,0,0-5.514-5.5q-14.47,0-28.941,0a5.436,5.436,0,0,0-5.547,5.528q0,14.468,0,28.937a5.44,5.44,0,0,0,5.545,5.532q14.439,0,28.878,0a5.439,5.439,0,0,0,5.58-5.561q0-7.187,0-14.375Q6007.949,5997.466,6007.948,5990.184Zm-18.437,20.794c-1.3,1.32-2.609,2.624-3.917,3.932a5.425,5.425,0,0,1-3.564,1.7c-3.692,0-6.3-2.837-5.986-6.059a5.553,5.553,0,0,1,1.64-3.465c1.657-1.662,3.3-3.333,4.979-4.978a5.544,5.544,0,0,1,7.764-.187,1.574,1.574,0,1,1-2.059,2.376,2.508,2.508,0,0,0-3.591.17c-1.583,1.648-3.228,3.235-4.836,4.858a2.383,2.383,0,1,0,3.35,3.388q1.412-1.38,2.789-2.8a.759.759,0,0,1,.855-.211c.74.19,1.5.3,2.256.421.235.038.536.01.571.292A.809.809,0,0,1,5989.511,6010.978Zm10.342-12.169a5.517,5.517,0,0,1-1.632,3.465c-1.683,1.688-3.354,3.386-5.058,5.053a5.569,5.569,0,0,1-7.79.049,1.561,1.561,0,0,1,.525-2.637,1.757,1.757,0,0,1,1.7.366,3.641,3.641,0,0,0,1.243.612,2.042,2.042,0,0,0,1.99-.57c1.753-1.722,3.5-3.449,5.216-5.212a2.355,2.355,0,0,0-.088-3.3,2.388,2.388,0,0,0-3.33,0q-1.433,1.384-2.818,2.816a.783.783,0,0,1-.891.2c-.727-.188-1.476-.293-2.219-.413-.237-.038-.535-.013-.57-.294a.808.808,0,0,1,.249-.561c1.288-1.31,2.595-2.6,3.891-3.9a5.476,5.476,0,0,1,3.635-1.726A5.669,5.669,0,0,1,5999.853,5998.809Z" transform="translate(-5967.945 -5984.683)" fill="#1b63b0"/>
</svg>
