<svg xmlns="http://www.w3.org/2000/svg" width="40" height="40" viewBox="0 0 40 40">
  <g id="Group_409" data-name="Group 409" transform="translate(-5595.264 -5984.676)">
    <path id="Path_192" data-name="Path 192" d="M5635.263,6004.739q0,7.188,0,14.375a5.439,5.439,0,0,1-5.579,5.561q-14.437,0-28.874,0a5.438,5.438,0,0,1-5.544-5.532q0-14.468,0-28.937a5.435,5.435,0,0,1,5.546-5.528q14.469,0,28.937,0a5.434,5.434,0,0,1,5.513,5.5Q5635.268,5997.458,5635.263,6004.739ZM5616.7,6002.3l-.151-.07c0-.264,0-.527,0-.79-.017-.775-.241-1-1.012-1q-1.623-.007-3.248,0c-.723,0-1.011.259-1.012.956q-.012,7.4,0,14.8c0,.707.286.978.991.983,1.041.008,2.082,0,3.123,0,.939,0,1.146-.2,1.146-1.125,0-2.457-.055-4.916.031-7.37a7.152,7.152,0,0,1,.653-2.624,2.377,2.377,0,0,1,2.538-1.337,2.33,2.33,0,0,1,2.24,1.85,7.819,7.819,0,0,1,.258,1.906c.028,2.54.009,5.081.012,7.621,0,.822.252,1.071,1.082,1.074q1.624.007,3.248,0c.838,0,1.068-.231,1.067-1.081,0-2.769.011-5.539-.024-8.308a17.079,17.079,0,0,0-.247-2.667,5.609,5.609,0,0,0-2.255-3.956,6.989,6.989,0,0,0-5.469-.792A4.753,4.753,0,0,0,5616.7,6002.3Zm-7.81,6.568q0-3.688,0-7.375c0-.773-.284-1.056-1.049-1.061q-1.593-.01-3.187,0c-.733.006-1.02.284-1.021,1.024q-.008,7.344,0,14.688c0,.76.295,1.03,1.079,1.035q1.531.009,3.063,0c.839,0,1.115-.28,1.116-1.125Q5608.9,6012.458,5608.891,6008.864Zm.759-13.3a3.391,3.391,0,1,0-3.392,3.424A3.383,3.383,0,0,0,5609.65,5995.567Z" transform="translate(0 0)" fill="#0063b0"/>
  </g>
</svg>
