<svg xmlns="http://www.w3.org/2000/svg" width="40" height="39.993" viewBox="0 0 40 39.993">
  <path id="Path_190" data-name="Path 190" d="M5273.937,5990.177a5.435,5.435,0,0,0-5.513-5.5q-14.468,0-28.937,0a5.435,5.435,0,0,0-5.546,5.527q0,14.467,0,28.933a5.439,5.439,0,0,0,5.544,5.531q14.436,0,28.875,0a5.437,5.437,0,0,0,5.577-5.56q0-7.187,0-14.373Q5273.938,5997.458,5273.937,5990.177Zm-13.3,6.156h-1.973a2.261,2.261,0,0,0-2.55,2.443v2.936h4.34l-.694,4.523h-3.646v10.936h-4.892v-10.936h-3.973v-4.523h3.973v-3.447c0-3.923,2.337-6.089,5.912-6.089a24.044,24.044,0,0,1,3.5.306Z" transform="translate(-5233.939 -5984.677)" fill="#0063b0"/>
</svg>
