<svg xmlns="http://www.w3.org/2000/svg" width="40" height="40" viewBox="0 0 40 40">
  <g id="Group_410" data-name="Group 410" transform="translate(-5783.859 -5984.683)">
    <path id="Path_193" data-name="Path 193" d="M5843.041,6052.049a.468.468,0,0,1-.693-.112c-.887-.953-1.8-1.882-2.7-2.827a1.945,1.945,0,0,1-.226-.428l-6.819,7.238a.935.935,0,0,0,.5-.143c1.7-.929,3.41-1.846,5.1-2.8a.588.588,0,0,1,.884.138c.919,1.028,1.879,2.021,2.861,3.069l6.745-7.159a.691.691,0,0,0-.391.1C5846.544,6050.1,5844.786,6051.062,5843.041,6052.049Z" transform="translate(-36.823 -48.341)" fill="#434443"/>
    <path id="Path_194" data-name="Path 194" d="M5823.857,5990.184a5.435,5.435,0,0,0-5.513-5.5q-14.469,0-28.937,0a5.435,5.435,0,0,0-5.546,5.528q0,14.468,0,28.937a5.438,5.438,0,0,0,5.544,5.532q14.437,0,28.874,0a5.439,5.439,0,0,0,5.579-5.561q0-7.187,0-14.375Q5823.858,5997.466,5823.857,5990.184Zm-11.066,22a13.141,13.141,0,0,1-9.876,3.347c-.8-.046-1.6-.259-2.4-.367a1.1,1.1,0,0,0-.626.09c-1.254.667-2.5,1.359-3.741,2.042-.068.037-.14.067-.292.139,0-1.021-.064-1.981.018-2.929a2.65,2.65,0,0,0-1.029-2.439,10.755,10.755,0,0,1-3.746-8.431,11.1,11.1,0,0,1,3.954-8.435,13.434,13.434,0,0,1,18.888,1.318A11.161,11.161,0,0,1,5812.791,6012.183Z" fill="#0063b0"/>
  </g>
</svg>
