<svg xmlns="http://www.w3.org/2000/svg" width="40" height="40" viewBox="0 0 40 40">
  <path id="Path_191" data-name="Path 191" d="M5446.444,5984.554q-14.426-.066-28.851-.124a5.42,5.42,0,0,0-5.554,5.488q-.064,14.424-.123,28.85a5.422,5.422,0,0,0,5.5,5.539q14.394.064,28.788.123a5.422,5.422,0,0,0,5.586-5.52q.034-7.166.063-14.332.031-7.258.061-14.518A5.418,5.418,0,0,0,5446.444,5984.554Zm-1.565,11.863a.648.648,0,0,1-.139.411,10.252,10.252,0,0,1-2.076,2.141c-.117.088-.315.18-.316.347-.018,4.271-1.127,8.53-4.252,11.609-3.98,3.921-9.93,4.967-15.2,3.486a14.482,14.482,0,0,1-2.932-1.188c-.31-.17-.614-.347-.913-.546-.076-.062-.132-.118-.067-.158s.113-.034.35,0a10.363,10.363,0,0,0,4.4-.544c.77-.265,2.42-.8,2.9-1.521.011-.017.023-.017.035-.034-.193-.046-.385-.047-.577-.082a5.669,5.669,0,0,1-4.221-3.564c-.056-.142,0-.215.148-.187a6.068,6.068,0,0,0,2.016-.054,3.178,3.178,0,0,1-.682-.211,5.466,5.466,0,0,1-3.348-4.37,3.187,3.187,0,0,1-.031-.61c.012-.142.074-.186.2-.106a5.442,5.442,0,0,0,2.053.585c-.23-.182-.444-.38-.652-.579a5.4,5.4,0,0,1-.893-6.387c.1-.152.17-.152.293-.01a16.556,16.556,0,0,0,10.629,5.468c.113.018.124,0,.107-.124a5.712,5.712,0,0,1,.065-2.226,5.424,5.424,0,0,1,1.061-2.1,5.655,5.655,0,0,1,1.77-1.433,5.509,5.509,0,0,1,2.188-.607,5.213,5.213,0,0,1,2.3.381,5.469,5.469,0,0,1,1.5.927,2.484,2.484,0,0,1,.27.278.209.209,0,0,0,.214.058,13.306,13.306,0,0,0,3.1-1.174.15.15,0,0,1,.139-.011c.045.034.028.091,0,.136a4.8,4.8,0,0,1-.875,1.579c-.25.307-.87,1.066-1.291,1.135a10.673,10.673,0,0,0,2.618-.734c.1-.047.106-.067.106,0C5444.879,5996.4,5444.879,5996.405,5444.879,5996.417Z" transform="translate(-5411.917 -5984.43)" fill="#0063b0"/>
</svg>
