<svg xmlns="http://www.w3.org/2000/svg" width="208.808" height="50" viewBox="0 0 208.808 50">
  <g id="logo_white" transform="translate(-202.486 -6374.528)">
    <g id="Group_12" data-name="Group 12">
      <path id="Path_5" data-name="Path 5" d="M282.482,6407.416c-9.3,0-16.008-6.173-16.008-15.351,0-9.342,6.914-15.309,15.8-15.309a17.8,17.8,0,0,1,9.934,2.807,1.5,1.5,0,0,1,.287,2.217l-2.164,2.465a1.623,1.623,0,0,1-2.288.487,9.077,9.077,0,0,0-5.522-1.762c-4.938,0-8.559,3.869-8.559,9.095,0,5.35,3.168,9.178,8.888,9.178a11.2,11.2,0,0,0,4.4-.783v-5.308h-3.48a2.076,2.076,0,0,1-2.076-2.076v-1.527a2.076,2.076,0,0,1,2.076-2.076h7.865a2.076,2.076,0,0,1,2.076,2.076v12.039a2.067,2.067,0,0,1-1.238,1.9A25.535,25.535,0,0,1,282.482,6407.416Z" fill="#fff"/>
      <path id="Path_6" data-name="Path 6" d="M299.986,6405.282v-26.193a1.472,1.472,0,0,1,1.472-1.472h4.135a1.471,1.471,0,0,1,1.471,1.472v21.533h9.8a1.472,1.472,0,0,1,1.471,1.472v3.188a1.471,1.471,0,0,1-1.471,1.472H301.458A1.472,1.472,0,0,1,299.986,6405.282Z" fill="#fff"/>
      <path id="Path_7" data-name="Path 7" d="M374.545,6406.675h-4.333a1.963,1.963,0,0,1-1.837-1.269l-9.715-25.667a1.625,1.625,0,0,1,1.52-2.2h4.368a1.626,1.626,0,0,1,1.546,1.121l6.383,19.538h.164l6.343-19.535a1.627,1.627,0,0,1,1.547-1.124h4.227a1.627,1.627,0,0,1,1.517,2.211l-9.9,25.668A1.963,1.963,0,0,1,374.545,6406.675Z" fill="#fff"/>
      <path id="Path_8" data-name="Path 8" d="M390.718,6405.447v-26.682a1.228,1.228,0,0,1,1.228-1.227h17.133a1.228,1.228,0,0,1,1.228,1.227v3.513a1.228,1.228,0,0,1-1.228,1.228H397.508v5.473H408.38a1.227,1.227,0,0,1,1.227,1.228v3.183a1.227,1.227,0,0,1-1.227,1.227H397.508v6.049H409.82a1.228,1.228,0,0,1,1.228,1.228v3.553a1.228,1.228,0,0,1-1.228,1.228H391.946A1.228,1.228,0,0,1,390.718,6405.447Z" fill="#fff"/>
    </g>
    <path id="Path_9" data-name="Path 9" d="M354.184,6384.593a1.043,1.043,0,0,0-1.45-.453h0a1.074,1.074,0,0,0-.3.265.4.4,0,0,0-.034.049l0,0a8.011,8.011,0,0,0-.926,1.911c-.121.3-.24.632-.372.98l-.016-.02s-.055.189-.17.509c-.1.288-.248.682-.452,1.137-.023.049-.047.1-.07.155-.056.12-.111.243-.175.37a13.252,13.252,0,0,1-1.875,2.9,7.351,7.351,0,0,1-2.608,1.969c-3.928,1.669-7.211-.456-7.875.7-.384.677,2.56,2.035,5.472,1.784,0,0-2.3,1.292-7.186-.311-2.342-.767-3.028.023-3.159.547s5.4,2.144,6.243,2.219a10.728,10.728,0,0,1-5.44-.667c-2.137-.951-3.572-1.1-3.961-.439-.086.205.358.754,1.162,1.426-.387.092-3.879.875-3.359-.656.28-.83.873-1.078,1.792-1.389a13.924,13.924,0,0,0,3.524-1.589,11.512,11.512,0,0,0,1.309-.99c2.342-2.031,3.994-4.969,4.207-6.8.251-2.159-2.415-.97-3.648-.205s-3.4,2.557-5.5,1.756.564-2.038,4.1-4.582a45.053,45.053,0,0,1,10.22-5.488c.314-.128.6-.252.855-.371,3.463-1.617,2.257-2.584,2.257-2.584l-.18-.116a16.585,16.585,0,0,0-6.657-2,17.7,17.7,0,1,0-2.418,35.3,17.385,17.385,0,0,0,3.544-.21,17.822,17.822,0,0,0,10.8-6.2,17.632,17.632,0,0,0,2.363-18.912Z" fill="#fff"/>
    <g id="Group_13" data-name="Group 13">
      <path id="Path_10" data-name="Path 10" d="M222.593,6394.723c-4.448-1.4-7.236-2.39-7.236-5.51,0-3.717,3.651-4.713,6.572-4.713a11.01,11.01,0,0,1,4.835,1.254,14.827,14.827,0,0,1,5.416-8.358,24.321,24.321,0,0,0-10.052-2.256c-8.763,0-18.189,4.315-18.189,14.737,0,8.5,6.041,11.55,12.016,13.475,6.173,1.992,9.758,3.121,9.758,6.705,0,3.784-3.054,5.111-6.506,5.111a13.955,13.955,0,0,1-8.826-3.571,2,2,0,0,0-2.776.064l-4.546,4.627a2,2,0,0,0,.162,2.952,25.78,25.78,0,0,0,15.986,5.288c9.294,0,17.99-4.846,17.99-15.666C237.2,6399.5,228.965,6396.781,222.593,6394.723Z" fill="#fff"/>
      <path id="Path_11" data-name="Path 11" d="M247.254,6394.723c-4.447-1.4-7.235-2.39-7.235-5.51,0-3.717,3.651-4.713,6.572-4.713a11.53,11.53,0,0,1,7,2.653,2.1,2.1,0,0,0,2.866-.185l4.161-4.389a2.117,2.117,0,0,0-.3-3.179,24.021,24.021,0,0,0-13.523-4.26c-8.763,0-18.189,4.315-18.189,14.737,0,8.5,6.041,11.55,12.015,13.475,6.174,1.992,9.758,3.121,9.758,6.705,0,3.784-3.053,5.111-6.5,5.111a12.7,12.7,0,0,1-5.113-1.18,15.742,15.742,0,0,1-5.6,8.39,27.642,27.642,0,0,0,10.709,2.15c9.293,0,17.989-4.846,17.989-15.666C261.858,6399.5,253.627,6396.781,247.254,6394.723Z" fill="#fff"/>
    </g>
    <g id="Group_14" data-name="Group 14">
      <path id="Path_12" data-name="Path 12" d="M271.277,6420.641a1.348,1.348,0,0,0,.519,1.163,2.2,2.2,0,0,0,1.325.379,3.245,3.245,0,0,0,.719-.076,1.433,1.433,0,0,0,.618-.321.806.806,0,0,0,.287-.643.723.723,0,0,0-.112-.4,1.085,1.085,0,0,0-.25-.286,1.656,1.656,0,0,0-.433-.222,4.8,4.8,0,0,0-.49-.164c-.132-.035-.331-.085-.6-.152s-.464-.118-.6-.157a7.042,7.042,0,0,1-.916-.286,3.956,3.956,0,0,1-.776-.426,1.764,1.764,0,0,1-.59-.689,2.2,2.2,0,0,1-.2-.969,2.149,2.149,0,0,1,.935-1.863,3.681,3.681,0,0,1,2.182-.659,4.917,4.917,0,0,1,1.647.256,2.608,2.608,0,0,1,1.208.883,2.444,2.444,0,0,1,.486,1.546h-1.776c-.046-.841-.6-1.26-1.645-1.26a1.647,1.647,0,0,0-.883.233.779.779,0,0,0-.378.712.651.651,0,0,0,.4.648,17.9,17.9,0,0,0,2.084.613q2.475.515,2.475,2.428a2.361,2.361,0,0,1-.9,1.926,3.959,3.959,0,0,1-2.563.736,4.97,4.97,0,0,1-1.341-.175,3.767,3.767,0,0,1-1.133-.519,2.409,2.409,0,0,1-.795-.929,2.852,2.852,0,0,1-.28-1.331Z" fill="#fff"/>
      <path id="Path_13" data-name="Path 13" d="M279.881,6415.072h1.88l3.117,8.336h-1.9l-.631-1.856h-3.118l-.653,1.856h-1.845Zm-.174,5.114h2.16l-1.051-3.058h-.024Z" fill="#fff"/>
      <path id="Path_14" data-name="Path 14" d="M285.6,6415.072h5.861v1.541h-4.028v1.927h3.49v1.424h-3.49v3.444H285.6Z" fill="#fff"/>
      <path id="Path_15" data-name="Path 15" d="M292.526,6415.072h6.234v1.541h-4.4v1.786h4.04v1.425h-4.04v2.044h4.5v1.54h-6.328Z" fill="#fff"/>
      <path id="Path_16" data-name="Path 16" d="M309.361,6422.463a2.761,2.761,0,0,1-2.288,1.132,3.83,3.83,0,0,1-2.99-1.226,4.438,4.438,0,0,1-1.109-3.093,4.575,4.575,0,0,1,1.109-3.153,3.8,3.8,0,0,1,2.99-1.249,3.731,3.731,0,0,1,2.364.788,3,3,0,0,1,1.15,2.154h-1.752a1.785,1.785,0,0,0-.624-1.045,1.807,1.807,0,0,0-1.138-.356,2.028,2.028,0,0,0-1.309.421,2.264,2.264,0,0,0-.741,1.044,4.257,4.257,0,0,0-.216,1.4,3.392,3.392,0,0,0,.561,1.978,1.932,1.932,0,0,0,1.7.812,1.772,1.772,0,0,0,1.984-1.8h-1.844V6418.9h3.5v4.506h-1.167Z" fill="#fff"/>
      <path id="Path_17" data-name="Path 17" d="M312.2,6415.072h1.833v6.8h4.063v1.54h-5.9Z" fill="#fff"/>
      <path id="Path_18" data-name="Path 18" d="M318.759,6419.276a4.575,4.575,0,0,1,1.109-3.153,4.2,4.2,0,0,1,5.978,0,4.575,4.575,0,0,1,1.109,3.153,4.438,4.438,0,0,1-1.109,3.093,4.256,4.256,0,0,1-5.978,0A4.438,4.438,0,0,1,318.759,6419.276Zm1.832,0a3.4,3.4,0,0,0,.561,1.978,2.195,2.195,0,0,0,3.409,0,3.391,3.391,0,0,0,.56-1.978,4.231,4.231,0,0,0-.216-1.4,2.243,2.243,0,0,0-.741-1.044,2.243,2.243,0,0,0-2.616,0,2.271,2.271,0,0,0-.741,1.044A4.284,4.284,0,0,0,320.591,6419.276Z" fill="#fff"/>
      <path id="Path_19" data-name="Path 19" d="M332.08,6423.408h-2.066l-2.7-8.336h1.88l1.856,5.861h.023l1.88-5.861h1.892Z" fill="#fff"/>
      <path id="Path_20" data-name="Path 20" d="M335.559,6415.072h6.235v1.541h-4.4v1.786h4.04v1.425h-4.04v2.044h4.5v1.54h-6.329Z" fill="#fff"/>
      <path id="Path_21" data-name="Path 21" d="M346.184,6419.509H349.7v1.424h-3.513Z" fill="#fff"/>
      <path id="Path_22" data-name="Path 22" d="M355.616,6420.641a1.346,1.346,0,0,0,.52,1.163,2.2,2.2,0,0,0,1.325.379,3.236,3.236,0,0,0,.718-.076,1.427,1.427,0,0,0,.618-.321.806.806,0,0,0,.287-.643.722.722,0,0,0-.111-.4,1.122,1.122,0,0,0-.25-.286,1.69,1.69,0,0,0-.433-.222,4.882,4.882,0,0,0-.49-.164c-.133-.035-.331-.085-.6-.152s-.463-.118-.6-.157a7.012,7.012,0,0,1-.917-.286,3.985,3.985,0,0,1-.776-.426,1.762,1.762,0,0,1-.589-.689,2.183,2.183,0,0,1-.2-.969,2.151,2.151,0,0,1,.934-1.863,3.682,3.682,0,0,1,2.183-.659,4.915,4.915,0,0,1,1.646.256,2.611,2.611,0,0,1,1.209.883,2.444,2.444,0,0,1,.485,1.546H358.8q-.069-1.262-1.645-1.26a1.644,1.644,0,0,0-.882.233.778.778,0,0,0-.379.712.651.651,0,0,0,.4.648,18.029,18.029,0,0,0,2.084.613q2.475.515,2.476,2.428a2.361,2.361,0,0,1-.9,1.926,3.963,3.963,0,0,1-2.563.736,4.971,4.971,0,0,1-1.342-.175,3.778,3.778,0,0,1-1.133-.519,2.407,2.407,0,0,1-.794-.929,2.84,2.84,0,0,1-.28-1.331Z" fill="#fff"/>
      <path id="Path_23" data-name="Path 23" d="M364.221,6415.072h1.88l3.117,8.336h-1.9l-.631-1.856h-3.117l-.654,1.856h-1.844Zm-.175,5.114h2.16l-1.051-3.058h-.023Z" fill="#fff"/>
      <path id="Path_24" data-name="Path 24" d="M369.943,6415.072h5.86v1.541h-4.028v1.927h3.491v1.424h-3.491v3.444h-1.832Z" fill="#fff"/>
      <path id="Path_25" data-name="Path 25" d="M376.865,6415.072H383.1v1.541h-4.4v1.786h4.04v1.425H378.7v2.044h4.495v1.54h-6.328Z" fill="#fff"/>
      <path id="Path_26" data-name="Path 26" d="M387.677,6415.072h1.832v6.8h4.064v1.54h-5.9Z" fill="#fff"/>
      <path id="Path_27" data-name="Path 27" d="M394.6,6415.072h1.833v8.336H394.6Z" fill="#fff"/>
      <path id="Path_28" data-name="Path 28" d="M398.044,6415.072H403.9v1.541h-4.028v1.927h3.49v1.424h-3.49v3.444h-1.833Z" fill="#fff"/>
      <path id="Path_29" data-name="Path 29" d="M404.966,6415.072H411.2v1.541h-4.4v1.786h4.04v1.425H406.8v2.044h4.495v1.54h-6.328Z" fill="#fff"/>
    </g>
  </g>
</svg>
