<svg id="Group_571" data-name="Group 571" xmlns="http://www.w3.org/2000/svg" width="80.383" height="67.1" viewBox="0 0 80.383 67.1">
  <path id="Path_207" data-name="Path 207" d="M-112.747-549.7c.521.136,1.016.229,1.486.395q18.309,6.451,36.614,12.913c1.2.422,2.112,1.083,2.1,2.479-.015,1.336-.915,1.98-2.055,2.385-12.274,4.362-24.542,8.744-36.836,13.048a4.482,4.482,0,0,1-2.753-.061c-12.214-4.281-24.4-8.63-36.6-12.96-1.178-.418-2.141-1.044-2.138-2.45s.94-2.029,2.133-2.449q18.25-6.429,36.5-12.872C-113.8-549.451-113.263-549.559-112.747-549.7Z" transform="translate(152.934 549.699)" fill="#fff"/>
  <path id="Path_208" data-name="Path 208" d="M-87.154-437.056c5.892,2.089,11.553,4.093,17.211,6.1q1.887.67,3.764,1.37a7.72,7.72,0,0,0,5.509-.057c6.558-2.358,13.13-4.677,19.7-7.009.308-.109.621-.205,1.109-.365v1.32c0,2.679-.1,5.362.029,8.036a5.277,5.277,0,0,1-2.723,4.993,28.067,28.067,0,0,1-10.2,3.639,52.663,52.663,0,0,1-19.46.3,87.472,87.472,0,0,1-10.1-2.79,9.874,9.874,0,0,1-2.7-1.559,4.8,4.8,0,0,1-2.161-4.269C-87.092-430.523-87.154-433.7-87.154-437.056Z" transform="translate(103.701 465.358)" fill="#fff"/>
  <path id="Path_209" data-name="Path 209" d="M123.418-452.377v13.54c0,1.381.033,2.764-.009,4.144a4.885,4.885,0,0,0,1.34,4.145,4.291,4.291,0,0,1-.443,6.185,2.519,2.519,0,0,0-.9,2.157q.054,4.96,0,9.921a2.316,2.316,0,0,1-2.333,2.555,2.244,2.244,0,0,1-2.316-2.409c-.021-3.474.022-6.95-.041-10.423A2.388,2.388,0,0,0,118-424.1a4.786,4.786,0,0,1,.018-7.3,2.383,2.383,0,0,0,.7-1.554c.05-5.442.078-10.885-.006-16.326-.018-1.193.358-1.722,1.447-2.006C121.193-451.554,122.193-451.96,123.418-452.377Z" transform="translate(-48.671 476.829)" fill="#fff"/>
</svg>
