<svg xmlns="http://www.w3.org/2000/svg" width="208.809" height="50" viewBox="0 0 208.809 50">
  <g id="logo" transform="translate(-202.486 77.121)">
    <g id="Group_22" data-name="Group 22">
      <path id="Path_34" data-name="Path 34" d="M282.482-44.233c-9.3,0-16.008-6.173-16.008-15.351,0-9.342,6.914-15.309,15.8-15.309a17.8,17.8,0,0,1,9.934,2.807,1.5,1.5,0,0,1,.287,2.217L290.333-67.4a1.623,1.623,0,0,1-2.288.487,9.078,9.078,0,0,0-5.522-1.762c-4.938,0-8.559,3.869-8.559,9.1,0,5.35,3.168,9.178,8.888,9.178a11.2,11.2,0,0,0,4.4-.783V-56.5h-3.48a2.077,2.077,0,0,1-2.076-2.076V-60.1a2.077,2.077,0,0,1,2.076-2.076h7.865a2.076,2.076,0,0,1,2.076,2.076v12.04a2.063,2.063,0,0,1-1.238,1.9A25.529,25.529,0,0,1,282.482-44.233Z" fill="#0063b0"/>
      <path id="Path_35" data-name="Path 35" d="M299.986-46.367V-72.56a1.472,1.472,0,0,1,1.472-1.472h4.135a1.471,1.471,0,0,1,1.471,1.472v21.533h9.8a1.471,1.471,0,0,1,1.471,1.472v3.188a1.471,1.471,0,0,1-1.471,1.472H301.458A1.472,1.472,0,0,1,299.986-46.367Z" fill="#0063b0"/>
      <path id="Path_36" data-name="Path 36" d="M374.545-44.974h-4.333a1.964,1.964,0,0,1-1.837-1.269L358.66-71.91a1.625,1.625,0,0,1,1.52-2.2h4.369a1.625,1.625,0,0,1,1.545,1.121l6.383,19.538h.164l6.343-19.535a1.627,1.627,0,0,1,1.547-1.124h4.227a1.627,1.627,0,0,1,1.517,2.211l-9.9,25.669A1.964,1.964,0,0,1,374.545-44.974Z" fill="#0063b0"/>
      <path id="Path_37" data-name="Path 37" d="M390.718-46.2V-72.883a1.228,1.228,0,0,1,1.228-1.228h17.133a1.228,1.228,0,0,1,1.228,1.228v3.512a1.228,1.228,0,0,1-1.228,1.228H397.508v5.473H408.38a1.227,1.227,0,0,1,1.227,1.228v3.183a1.227,1.227,0,0,1-1.227,1.227H397.508v6.05H409.82a1.227,1.227,0,0,1,1.228,1.227V-46.2a1.228,1.228,0,0,1-1.228,1.228H391.946A1.228,1.228,0,0,1,390.718-46.2Z" fill="#0063b0"/>
    </g>
    <path id="Path_38" data-name="Path 38" d="M354.184-67.056a1.042,1.042,0,0,0-1.449-.453h0a1.057,1.057,0,0,0-.3.265.362.362,0,0,0-.034.049l0,0a8,8,0,0,0-.927,1.912c-.121.3-.24.631-.372.979l-.016-.02s-.055.189-.17.509c-.1.288-.248.682-.452,1.137-.023.049-.047.1-.07.155-.055.12-.111.243-.175.37a13.242,13.242,0,0,1-1.875,2.9,7.352,7.352,0,0,1-2.608,1.969c-3.928,1.669-7.211-.456-7.875.7-.384.677,2.56,2.035,5.472,1.784,0,0-2.3,1.292-7.186-.311-2.342-.767-3.028.023-3.158.547s5.4,2.144,6.242,2.219a10.722,10.722,0,0,1-5.44-.667c-2.137-.951-3.572-1.1-3.961-.439-.086.2.358.754,1.162,1.426-.387.092-3.879.875-3.359-.656.28-.829.873-1.078,1.792-1.389a13.931,13.931,0,0,0,3.524-1.589,11.5,11.5,0,0,0,1.309-.99c2.342-2.031,3.994-4.969,4.207-6.8.252-2.159-2.415-.97-3.648-.2s-3.4,2.557-5.5,1.756.564-2.038,4.1-4.582a45.035,45.035,0,0,1,10.219-5.488c.314-.128.6-.252.855-.371,3.464-1.617,2.258-2.584,2.258-2.584l-.181-.116a16.585,16.585,0,0,0-6.657-2,17.774,17.774,0,0,0-19.2,15.088,17.577,17.577,0,0,0-.175,3.022,17.694,17.694,0,0,0,16.956,17.194,17.434,17.434,0,0,0,3.544-.209,17.827,17.827,0,0,0,10.8-6.2,17.574,17.574,0,0,0,4.009-9.566A17.653,17.653,0,0,0,354.184-67.056Z" fill="#0063b0"/>
    <g id="Group_23" data-name="Group 23">
      <path id="Path_39" data-name="Path 39" d="M222.593-56.926c-4.448-1.4-7.236-2.39-7.236-5.51,0-3.717,3.651-4.713,6.572-4.713a11.007,11.007,0,0,1,4.835,1.254,14.827,14.827,0,0,1,5.416-8.358,24.318,24.318,0,0,0-10.052-2.256c-8.762,0-18.189,4.315-18.189,14.737,0,8.5,6.041,11.55,12.016,13.475,6.173,1.992,9.758,3.121,9.758,6.705,0,3.784-3.054,5.111-6.506,5.111a13.956,13.956,0,0,1-8.826-3.571,2,2,0,0,0-2.776.064l-4.546,4.627a2,2,0,0,0,.163,2.952,25.776,25.776,0,0,0,15.985,5.288c9.294,0,17.99-4.846,17.99-15.666C237.2-52.147,228.965-54.868,222.593-56.926Z" fill="#0063b0"/>
      <path id="Path_40" data-name="Path 40" d="M247.254-56.926c-4.447-1.4-7.235-2.39-7.235-5.51,0-3.717,3.651-4.713,6.572-4.713a11.53,11.53,0,0,1,7,2.653,2.1,2.1,0,0,0,2.866-.185l4.161-4.389a2.117,2.117,0,0,0-.3-3.179,24.026,24.026,0,0,0-13.524-4.26c-8.763,0-18.189,4.315-18.189,14.737,0,8.5,6.041,11.55,12.015,13.475,6.174,1.992,9.758,3.121,9.758,6.705,0,3.784-3.053,5.111-6.5,5.111a12.7,12.7,0,0,1-5.112-1.18,15.749,15.749,0,0,1-5.6,8.39,27.641,27.641,0,0,0,10.709,2.15c9.294,0,17.99-4.846,17.99-15.666C261.859-52.147,253.627-54.868,247.254-56.926Z" fill="#8abb2a"/>
    </g>
    <g id="Group_24" data-name="Group 24">
      <path id="Path_41" data-name="Path 41" d="M271.277-31.008a1.347,1.347,0,0,0,.519,1.163,2.2,2.2,0,0,0,1.325.379,3.263,3.263,0,0,0,.719-.076,1.437,1.437,0,0,0,.618-.321.806.806,0,0,0,.287-.643.731.731,0,0,0-.111-.4,1.1,1.1,0,0,0-.251-.286,1.641,1.641,0,0,0-.433-.222,4.825,4.825,0,0,0-.49-.164q-.2-.052-.6-.151c-.264-.067-.464-.119-.6-.158a7.024,7.024,0,0,1-.917-.286,3.945,3.945,0,0,1-.776-.426,1.77,1.77,0,0,1-.59-.689,2.2,2.2,0,0,1-.2-.969,2.146,2.146,0,0,1,.935-1.862,3.678,3.678,0,0,1,2.182-.66,4.914,4.914,0,0,1,1.647.256,2.611,2.611,0,0,1,1.209.883,2.451,2.451,0,0,1,.485,1.547h-1.776q-.069-1.261-1.645-1.261a1.649,1.649,0,0,0-.883.233.78.78,0,0,0-.378.712.651.651,0,0,0,.4.648,17.882,17.882,0,0,0,2.084.613q2.475.515,2.476,2.428a2.364,2.364,0,0,1-.9,1.926,3.965,3.965,0,0,1-2.564.736,4.977,4.977,0,0,1-1.341-.175,3.775,3.775,0,0,1-1.133-.519,2.407,2.407,0,0,1-.795-.929,2.851,2.851,0,0,1-.28-1.331Z" fill="#248332"/>
      <path id="Path_42" data-name="Path 42" d="M279.881-36.577h1.88l3.117,8.336h-1.9l-.631-1.856h-3.117l-.654,1.856H276.73Zm-.174,5.114h2.16l-1.051-3.058h-.024Z" fill="#248332"/>
      <path id="Path_43" data-name="Path 43" d="M285.6-36.577h5.861v1.541h-4.028v1.927h3.49v1.424h-3.49v3.444H285.6Z" fill="#248332"/>
      <path id="Path_44" data-name="Path 44" d="M292.526-36.577h6.234v1.541h-4.4v1.786h4.04v1.425h-4.04v2.044h4.5v1.54h-6.328Z" fill="#248332"/>
      <path id="Path_45" data-name="Path 45" d="M309.361-29.186a2.76,2.76,0,0,1-2.288,1.132,3.827,3.827,0,0,1-2.989-1.226,4.437,4.437,0,0,1-1.11-3.093,4.576,4.576,0,0,1,1.11-3.153,3.794,3.794,0,0,1,2.989-1.249,3.731,3.731,0,0,1,2.364.788,3,3,0,0,1,1.15,2.154h-1.752a1.786,1.786,0,0,0-.624-1.045,1.806,1.806,0,0,0-1.138-.356,2.027,2.027,0,0,0-1.309.421,2.263,2.263,0,0,0-.741,1.044,4.256,4.256,0,0,0-.216,1.4,3.4,3.4,0,0,0,.561,1.978,1.932,1.932,0,0,0,1.7.812,1.772,1.772,0,0,0,1.984-1.8h-1.844v-1.366h3.5v4.506h-1.167Z" fill="#248332"/>
      <path id="Path_46" data-name="Path 46" d="M312.2-36.577h1.833v6.8h4.063v1.54h-5.9Z" fill="#248332"/>
      <path id="Path_47" data-name="Path 47" d="M318.759-32.373a4.576,4.576,0,0,1,1.109-3.153,3.794,3.794,0,0,1,2.989-1.249,3.8,3.8,0,0,1,2.989,1.249,4.576,4.576,0,0,1,1.109,3.153,4.437,4.437,0,0,1-1.109,3.093,3.832,3.832,0,0,1-2.989,1.226,3.827,3.827,0,0,1-2.989-1.226A4.436,4.436,0,0,1,318.759-32.373Zm1.832,0a3.4,3.4,0,0,0,.561,1.978,1.932,1.932,0,0,0,1.7.812,1.93,1.93,0,0,0,1.7-.812,3.392,3.392,0,0,0,.56-1.978,4.23,4.23,0,0,0-.216-1.4,2.241,2.241,0,0,0-.741-1.044,2.021,2.021,0,0,0-1.307-.421,2.024,2.024,0,0,0-1.308.421,2.265,2.265,0,0,0-.742,1.044A4.282,4.282,0,0,0,320.591-32.373Z" fill="#248332"/>
      <path id="Path_48" data-name="Path 48" d="M332.08-28.241h-2.066l-2.7-8.336h1.88l1.856,5.861h.023l1.88-5.861h1.892Z" fill="#248332"/>
      <path id="Path_49" data-name="Path 49" d="M335.559-36.577h6.235v1.541h-4.4v1.786h4.04v1.425h-4.04v2.044h4.5v1.54h-6.329Z" fill="#248332"/>
      <path id="Path_50" data-name="Path 50" d="M346.184-32.139H349.7v1.423h-3.513Z" fill="#248332"/>
      <path id="Path_51" data-name="Path 51" d="M355.616-31.008a1.345,1.345,0,0,0,.52,1.163,2.2,2.2,0,0,0,1.325.379,3.27,3.27,0,0,0,.719-.076,1.442,1.442,0,0,0,.618-.321.805.805,0,0,0,.287-.643.724.724,0,0,0-.112-.4,1.1,1.1,0,0,0-.25-.286,1.674,1.674,0,0,0-.433-.222,4.909,4.909,0,0,0-.49-.164q-.2-.052-.6-.151c-.265-.067-.464-.119-.6-.158a7.023,7.023,0,0,1-.917-.286,3.973,3.973,0,0,1-.776-.426,1.759,1.759,0,0,1-.589-.689,2.181,2.181,0,0,1-.2-.969,2.148,2.148,0,0,1,.934-1.862,3.679,3.679,0,0,1,2.183-.66,4.9,4.9,0,0,1,1.646.256,2.611,2.611,0,0,1,1.209.883,2.445,2.445,0,0,1,.485,1.547H358.8q-.069-1.261-1.645-1.261a1.648,1.648,0,0,0-.882.233.779.779,0,0,0-.379.712.651.651,0,0,0,.4.648,17.989,17.989,0,0,0,2.085.613q2.475.515,2.475,2.428a2.361,2.361,0,0,1-.9,1.926,3.964,3.964,0,0,1-2.563.736,4.979,4.979,0,0,1-1.342-.175,3.786,3.786,0,0,1-1.133-.519,2.4,2.4,0,0,1-.794-.929,2.839,2.839,0,0,1-.28-1.331Z" fill="#248332"/>
      <path id="Path_52" data-name="Path 52" d="M364.221-36.577h1.88l3.117,8.336h-1.9l-.631-1.856h-3.117l-.653,1.856h-1.845Zm-.175,5.114h2.16l-1.051-3.058h-.023Z" fill="#248332"/>
      <path id="Path_53" data-name="Path 53" d="M369.943-36.577H375.8v1.541h-4.029v1.927h3.491v1.424h-3.491v3.444h-1.832Z" fill="#248332"/>
      <path id="Path_54" data-name="Path 54" d="M376.865-36.577H383.1v1.541h-4.4v1.786h4.04v1.425H378.7v2.044h4.495v1.54h-6.328Z" fill="#248332"/>
      <path id="Path_55" data-name="Path 55" d="M387.677-36.577h1.833v6.8h4.063v1.54h-5.9Z" fill="#248332"/>
      <path id="Path_56" data-name="Path 56" d="M394.6-36.577h1.833v8.336H394.6Z" fill="#248332"/>
      <path id="Path_57" data-name="Path 57" d="M398.044-36.577H403.9v1.541h-4.028v1.927h3.49v1.424h-3.49v3.444h-1.833Z" fill="#248332"/>
      <path id="Path_58" data-name="Path 58" d="M404.966-36.577H411.2v1.541h-4.4v1.786h4.04v1.425H406.8v2.044h4.5v1.54h-6.329Z" fill="#248332"/>
    </g>
  </g>
</svg>
