<svg xmlns="http://www.w3.org/2000/svg" xmlns:xlink="http://www.w3.org/1999/xlink" width="78.875" height="69.504" viewBox="0 0 78.875 69.504">
  <defs>
    <linearGradient id="linear-gradient" x1="0.5" x2="0.5" y2="1" gradientUnits="objectBoundingBox">
      <stop offset="0" stop-color="#0063b0"/>
      <stop offset="1" stop-color="#68c7d9"/>
    </linearGradient>
  </defs>
  <g id="Group_321" data-name="Group 321" transform="translate(120.69 -1121.595)">
    <path id="Path_153" data-name="Path 153" d="M-44.138,1150.992c0,5.13-.024,10.262.02,15.392a3.493,3.493,0,0,1-1.146,2.716c-3.262,3.18-6.486,6.4-9.752,9.574a2.406,2.406,0,0,0-.829,1.921c.047,2.954-.008,5.911.035,8.865.013.826-.174,1.126-1.073,1.122q-11.634-.054-23.271,0c-.961.005-1.147-.308-1.142-1.193.034-6.525.023-13.052.014-19.578a3.342,3.342,0,0,1,.941-2.565c4.673-4.613,9.3-9.27,14-13.854a4.763,4.763,0,0,1,7.821,1.29,4.788,4.788,0,0,1-1.06,5.544c-1.945,2-3.94,3.953-5.908,5.932-1.249,1.255-1.383,2.523-.391,3.549s2.358.938,3.573-.262c2.22-2.191,4.413-4.409,6.621-6.611a7.468,7.468,0,0,0,2.175-5.562q-.021-11.02-.011-22.041a4.505,4.505,0,0,1,2.5-4.216,4.365,4.365,0,0,1,4.777.259,4.665,4.665,0,0,1,2.109,4.078Q-44.148,1143.172-44.138,1150.992Z" transform="translate(2.303 0.516)" fill="url(#linear-gradient)"/>
    <path id="Path_154" data-name="Path 154" d="M-96.252,1190.558c-3.9,0-7.8-.026-11.7.02-.822.01-1.047-.236-1.037-1.032.038-3-.006-5.992.031-8.987a2.286,2.286,0,0,0-.755-1.831c-3.182-3.085-6.3-6.233-9.5-9.3a4.361,4.361,0,0,1-1.479-3.448c.057-10.138.029-20.275.031-30.413,0-2.971,1.931-5.083,4.65-5.1a4.76,4.76,0,0,1,4.725,5.052c.013,7.182.024,14.365-.014,21.547a8.018,8.018,0,0,0,2.55,6.154c2.191,2.1,4.289,4.3,6.464,6.419a2.29,2.29,0,0,0,3.39.044,2.263,2.263,0,0,0-.18-3.294c-.279-.3-.581-.58-.87-.871-1.8-1.8-3.615-3.582-5.384-5.411a4.592,4.592,0,0,1-1.154-4.883,4.614,4.614,0,0,1,3.693-3.237,4.37,4.37,0,0,1,4.089,1.178c4.833,4.742,9.626,9.525,14.432,14.293a2.842,2.842,0,0,1,.747,2.143c0,6.649-.011,13.3.017,19.948,0,.815-.245,1.037-1.051,1.028C-88.455,1190.535-92.354,1190.558-96.252,1190.558Z" transform="translate(0 0.518)" fill="url(#linear-gradient)"/>
    <path id="Path_155" data-name="Path 155" d="M-82.479,1121.6c1.312,0,2.625,0,3.937,0,2.12.006,2.92.786,2.93,2.867.007,1.8.037,3.611-.015,5.414-.022.765.229.987.975.969,1.845-.045,3.691-.031,5.537-.009,1.9.021,2.766.884,2.781,2.808q.032,4.123,0,8.245c-.015,1.97-.894,2.82-2.881,2.833-1.641.012-3.286.076-4.921-.022-1.144-.07-1.6.191-1.505,1.442.123,1.672.038,3.362.028,5.043-.013,1.913-.787,2.727-2.661,2.74q-4.306.029-8.614,0c-1.733-.016-2.541-.85-2.558-2.592-.019-1.886-.04-3.775.013-5.66.021-.769-.232-.981-.977-.961-1.8.047-3.608.023-5.413.013-2.056-.012-2.9-.855-2.907-2.934q-.019-4,0-8c.008-2.137.84-2.947,3.008-2.956,1.682-.009,3.365-.05,5.045.017.926.036,1.3-.172,1.251-1.2-.091-1.8-.038-3.608-.021-5.413a2.356,2.356,0,0,1,2.661-2.64C-85.351,1121.589-83.914,1121.6-82.479,1121.6Z" transform="translate(1.283 0)" fill="url(#linear-gradient)"/>
  </g>
</svg>
