<svg xmlns="http://www.w3.org/2000/svg" xmlns:xlink="http://www.w3.org/1999/xlink" width="70.616" height="82.049" viewBox="0 0 70.616 82.049">
  <defs>
    <linearGradient id="linear-gradient" x1="0.5" x2="0.5" y2="1" gradientUnits="objectBoundingBox">
      <stop offset="0" stop-color="#0064ad"/>
      <stop offset="1" stop-color="#68c7d9"/>
    </linearGradient>
  </defs>
  <g id="Group_322" data-name="Group 322" transform="translate(-62.054 -1104.849)">
    <path id="Path_156" data-name="Path 156" d="M73.922,1146.031v-6.388c0-5.808.013-11.617-.007-17.425-.006-1.78.426-3.3,2.126-4.186a3.873,3.873,0,0,1,5.713,3.471c.054,5.337.019,10.677.021,16.016q0,2.433,0,4.869c0,.465-.09.954.653.976.765.024.792-.417.791-.985q-.012-9.354,0-18.706c0-2.9-.028-5.81.042-8.711a3.733,3.733,0,0,1,3.227-3.586,3.9,3.9,0,0,1,4.355,2.573,6.464,6.464,0,0,1,.2,2.153q.005,12.748,0,25.5c0,.3.018.6,0,.9-.039.568.136.878.78.868.626-.01.663-.372.661-.842-.008-1.793,0-3.588,0-5.381,0-5.254-.017-10.506.024-15.76a3.9,3.9,0,0,1,3.358-3.784,3.953,3.953,0,0,1,4.195,2.468,6.565,6.565,0,0,1,.29,2.4q0,9.672,0,19.347c0,.341,0,.683.017,1.023.022.458.332.522.712.523.4,0,.668-.1.662-.562,0-.3,0-.6,0-.9,0-4.57-.019-9.14.015-13.709a3.9,3.9,0,0,1,2.8-3.856,3.955,3.955,0,0,1,4.238,1.362,4.849,4.849,0,0,1,.844,3.146c-.009,9.4.123,18.794-.041,28.188a226.33,226.33,0,0,0,1.518,27.467c.092.889-.115,1.226-1.06,1.224q-18.259-.034-36.518.006c-1.308,0-1.072-.764-1.009-1.517.423-5.017.841-10.036,1.294-15.051a3.314,3.314,0,0,0-.39-1.95q-5.114-9.727-10.191-19.477a9.894,9.894,0,0,1-1.143-3.1,4.67,4.67,0,0,1,2.341-4.75,3.77,3.77,0,0,1,4.544.93c1.334,1.379,2.546,2.876,3.827,4.306A2.1,2.1,0,0,0,73.922,1146.031Z" transform="translate(0 1.171)" fill="url(#linear-gradient)"/>
    <path id="Path_157" data-name="Path 157" d="M104.515,1151.537c0-6.4.017-11.61-.013-16.818a9.724,9.724,0,0,1,.578-3.49c1.94-5.272,3.8-10.572,5.748-15.84,1.07-2.895,4.232-3.791,6.39-1.838a3.8,3.8,0,0,1,1.031,4.431q-3.471,9.6-6.91,19.219c-.124.35-.547.721-.187,1.157.44.532,1.1.327,1.382-.441,1.586-4.359,3.147-8.726,4.748-13.078a3.945,3.945,0,1,1,7.453,2.533c-1.681,4.731-3.426,9.44-5.1,14.173-2.983,8.422-6.282,16.733-8.969,25.258-1.318,4.179-2.43,8.422-3.636,12.636-.083.287-.157.576-.263.855-.116.3-.124.782-.56.746-.5-.044-.466-.542-.5-.913-.3-3.4-.578-6.8-.9-10.2C104.186,1163.407,104.708,1156.871,104.515,1151.537Z" transform="translate(7.663 1.384)" fill="url(#linear-gradient)"/>
    <path id="Path_158" data-name="Path 158" d="M111.947,1109.134a10.693,10.693,0,0,1-.325,1.3q-2.846,7.917-5.72,15.823c-.126.346-.128.833-.587.908-.554.092-.674-.447-.868-.79a6.573,6.573,0,0,0-4.615-3.689c-.714-.129-.835-.523-.583-1.21,1.694-4.629,3.323-9.282,5.036-13.9a3.928,3.928,0,0,1,4.428-2.66A4.079,4.079,0,0,1,111.947,1109.134Z" transform="translate(6.695)" fill="url(#linear-gradient)"/>
    <path id="Path_159" data-name="Path 159" d="M102.28,1111.36c-.094.355-.205.943-.4,1.5q-1.861,5.231-3.761,10.45c-.136.373-.148.956-.739.876-.493-.067-.394-.586-.465-.942-.175-.877-.359-1.753-.5-2.635a5.638,5.638,0,0,0-2.99-4.363c-.687-.361-.907-.726-.594-1.506.68-1.7,1.2-3.459,1.9-5.149a3.9,3.9,0,0,1,4.523-2.295A4.146,4.146,0,0,1,102.28,1111.36Z" transform="translate(5.531 0.425)" fill="url(#linear-gradient)"/>
  </g>
</svg>
