<svg xmlns="http://www.w3.org/2000/svg" xmlns:xlink="http://www.w3.org/1999/xlink" width="82.323" height="60.917" viewBox="0 0 82.323 60.917">
  <defs>
    <linearGradient id="linear-gradient" x1="0.5" x2="0.5" y2="1" gradientUnits="objectBoundingBox">
      <stop offset="0" stop-color="#0064ad"/>
      <stop offset="1" stop-color="#68c7d9"/>
    </linearGradient>
  </defs>
  <g id="Group_323" data-name="Group 323" transform="translate(-223.067 -1122.354)">
    <path id="Path_160" data-name="Path 160" d="M304.59,1124.579a3.944,3.944,0,0,0-3.967-2.225q-18.191.03-36.382.01-18.063,0-36.126.005a8.008,8.008,0,0,0-1.792.133c-2.054.472-3.639,3.225-3.173,5.945a9.412,9.412,0,0,0,1.656,3.774c7.565,10.319,15.185,20.564,22.791,30.827,4.515,6.093,9.02,12.2,13.554,18.266,1.955,2.615,4.144,2.589,6.124.042.31-.4.612-.809.915-1.218l24-32.39q5.818-7.852,11.633-15.708A6.7,6.7,0,0,0,304.59,1124.579ZM244.8,1140.2a4.98,4.98,0,0,0,.155.852,9.094,9.094,0,0,0,.778,1.941,2.8,2.8,0,0,0,1.482,1.394,10.981,10.981,0,0,0,2.975.286h4.978v3.8h-6.934a15.116,15.116,0,0,1-2.221-.144,7.269,7.269,0,0,1-1.705-.448,4.218,4.218,0,0,1-1.3-.828,5.9,5.9,0,0,1-1.021-1.281,10.826,10.826,0,0,1-1.251-3.124,14.976,14.976,0,0,1-.355-3.273,15.274,15.274,0,0,1,.318-3.2,10.438,10.438,0,0,1,1.237-3.075,5.1,5.1,0,0,1,2.676-2.252,11.546,11.546,0,0,1,4.057-.649h7.133l-2.166,3.971h-3.746a8.777,8.777,0,0,0-2.676.342,2.755,2.755,0,0,0-1.58,1.263,5.773,5.773,0,0,0-.7,1.762,8.8,8.8,0,0,0-.168,1.736C244.767,1139.617,244.778,1139.927,244.8,1140.2Zm29.162,3.571a7.164,7.164,0,0,1-1.669,2.945,4.907,4.907,0,0,1-2.241,1.394,14.018,14.018,0,0,1-2.252.41q-1.07.1-2.054.1a17.374,17.374,0,0,1-3.865-.405,6.03,6.03,0,0,1-4.835-4.686,15.432,15.432,0,0,1-.636-4.418v-.492a2.143,2.143,0,0,1,.026-.367l.311-2.016a7.469,7.469,0,0,1,1.319-3.211,5.713,5.713,0,0,1,1.58-1.58,7.458,7.458,0,0,1,1.892-.891,10.037,10.037,0,0,1,2.054-.4q1.058-.093,2.09-.092a15.657,15.657,0,0,1,1.892.118,10.8,10.8,0,0,1,1.886.4,7.333,7.333,0,0,1,1.705.765,5.267,5.267,0,0,1,1.375,1.219,8.286,8.286,0,0,1,1.544,3.2,15.442,15.442,0,0,1,.473,3.8A13.8,13.8,0,0,1,273.966,1143.776Zm12.227,2.31v2.389h-9.274V1145.7c0-.4.011-.764.032-1.077a7,7,0,0,1,.092-.806,2.612,2.612,0,0,1,.771-1.338,2.8,2.8,0,0,1,1.268-.848,7.038,7.038,0,0,1,1.68-.171h1.02a1.827,1.827,0,0,0,1.288-.226,1.045,1.045,0,0,0,.4-.763.718.718,0,0,0-.377-.716,2.254,2.254,0,0,0-1.311-.226H276.6l1.43-2.4h4.084a7.79,7.79,0,0,1,2.257.257,2.28,2.28,0,0,1,1.376,1.19,4.015,4.015,0,0,1,.537,2.055,3.809,3.809,0,0,1-.537,1.96,2.553,2.553,0,0,1-1.244,1.166,6.935,6.935,0,0,1-2.125.243h-.747a5.034,5.034,0,0,0-.972.061,1.083,1.083,0,0,0-.568.366,1.3,1.3,0,0,0-.331.58,3.763,3.763,0,0,0-.058.743v.334Z" transform="translate(0 0)" fill="url(#linear-gradient)"/>
    <path id="Path_161" data-name="Path 161" d="M266.721,1134.393a4.513,4.513,0,0,0-1.481-.64,7.008,7.008,0,0,0-1.756-.231,6.387,6.387,0,0,0-1.992.386,3.025,3.025,0,0,0-1.773,1.6,6.363,6.363,0,0,0-.63,2.932,9.761,9.761,0,0,0,.386,2.863,3.559,3.559,0,0,0,1.544,2.035,4.931,4.931,0,0,0,2.713.741,5.2,5.2,0,0,0,2.215-.5,3.548,3.548,0,0,0,1.631-1.469,4.23,4.23,0,0,0,.647-1.729q.1-.8.125-1.015a3.639,3.639,0,0,0,.024-.391,8.819,8.819,0,0,0-.374-2.594A4.054,4.054,0,0,0,266.721,1134.393Z" transform="translate(1.78 0.552)" fill="url(#linear-gradient)"/>
  </g>
</svg>
