<svg id="icon_A" xmlns="http://www.w3.org/2000/svg" width="61.887" height="60" viewBox="0 0 61.887 60">
  <path id="Path_73" data-name="Path 73" d="M409.5,1728.023c-4.5-4.5-8.922-8.918-13.026-13.023,3.672-3.846,7.37-7.76,11.128-11.618a14.158,14.158,0,0,1,2.946-2.363,12.757,12.757,0,0,1,11.952-.714,12.942,12.942,0,0,0,5.275,1.112c1.721-.016,3.451-.12,5.158.03a8.377,8.377,0,0,1,3.408.924,3.959,3.959,0,0,1,.086,6.852,8.364,8.364,0,0,1-3.563,1.042c-2,.167-4.021.046-6.034.047a4.921,4.921,0,0,0-.776.023c-.614.1-1.136.468-.978,1.083.109.422.652,1.037,1.012,1.044,3.731.082,7.464.071,11.2.037a1.92,1.92,0,0,0,.984-.543c3.81-3.13,7.585-6.305,11.431-9.39a13.544,13.544,0,0,1,3.263-1.875,4.746,4.746,0,0,1,3.973.156c1.6.774,1.882,2.119.695,3.453q-6.761,7.6-13.545,15.18a19.322,19.322,0,0,1-2.467,2.466,8.755,8.755,0,0,1-5.57,1.685c-6.944-.029-13.891.011-20.836-.035a2.859,2.859,0,0,0-2.364,1C411.765,1725.793,410.594,1726.914,409.5,1728.023Z" transform="translate(-396.477 -1668.023)" fill="#fff"/>
  <path id="Path_74" data-name="Path 74" d="M429.072,1699.792a5.43,5.43,0,0,1-.427-.353c-4.063-4.058-8.17-8.076-12.173-12.192a8.2,8.2,0,0,1,1.384-12.795,8.56,8.56,0,0,1,9.9.8c.446.371.869.771,1.364,1.213.395-.356.767-.7,1.15-1.037a8.261,8.261,0,0,1,13.752,4.34,7.43,7.43,0,0,1-1.819,6.977C437.921,1691.135,433.512,1695.4,429.072,1699.792Z" transform="translate(-392.967 -1673.212)" fill="#fff"/>
</svg>
