<svg id="icon_D" xmlns="http://www.w3.org/2000/svg" width="47.956" height="48" viewBox="0 0 47.956 48">
  <path id="Path_70" data-name="Path 70" d="M690.6,1970.363l-2.163,2.513c-.538-.594-.936-1.071-1.373-1.51-5.152-5.164-10.294-10.339-15.475-15.474a10.279,10.279,0,0,1-3.013-8.814,32.331,32.331,0,0,1,1.115-4.713c.086-.325.342-.848.542-.858.651-.033,1.339-.27,1.95.359,2.316,2.382,4.685,4.713,7.034,7.063q16.48,16.482,32.958,32.967c1.568,1.568,1.99,3.31,1.223,5.023a4.2,4.2,0,0,1-7.076,1.011c-3.264-3.617-6.5-7.258-9.748-10.888Z" transform="translate(-665.815 -1941.436)" fill="#fff"/>
  <path id="Path_71" data-name="Path 71" d="M704.74,1941.586l1.945,1.926-7.517,7.48,1.991,1.9,7.385-7.44,2.038,2.156-7.433,7.332,2.092,2.042,7.417-7.479,1.968,1.988c-.15.159-.314.343-.487.518-3,3-6.012,6-9,9.016a8.477,8.477,0,0,1-4.768,2.423,2.535,2.535,0,0,1-2.623-.912c-1.536-1.641-3.155-3.2-4.759-4.778a.977.977,0,0,1-.327-1.112c.161-.544.153-1.136.27-1.7a6.671,6.671,0,0,1,1.8-3.4q4.857-4.893,9.742-9.757A2.435,2.435,0,0,1,704.74,1941.586Z" transform="translate(-666.8 -1941.442)" fill="#fff"/>
  <path id="Path_72" data-name="Path 72" d="M680.148,1969.848l6.054,6.122a5.017,5.017,0,0,1-.333.392q-6.38,6.388-12.768,12.767a4.217,4.217,0,1,1-6-5.907c1.8-1.835,3.634-3.643,5.453-5.462q3.6-3.6,7.2-7.214A2.952,2.952,0,0,0,680.148,1969.848Z" transform="translate(-665.7 -1942.598)" fill="#fff"/>
</svg>
