<svg id="icon_B" xmlns="http://www.w3.org/2000/svg" width="48.012" height="48" viewBox="0 0 48.012 48">
  <path id="Path_75" data-name="Path 75" d="M971.269,1693.754v8.843l.226.154a4.619,4.619,0,0,1,.34-.546c2.117-2.568,4.258-5.116,6.348-7.706a1.76,1.76,0,0,1,1.644-.76c.918.061,1.843.015,2.815.015v28.215h-.789q-14.83,0-29.661.014c-.678,0-.87-.189-.926-.865-.173-2.067-.442-4.126-.665-6.189-.048-.443-.065-.889-.1-1.456,1.117,0,2.16-.035,3.2.012.624.028.848-.167.8-.8s-.011-1.284-.011-2.022c-1.241,0-2.387-.038-3.528.014-.657.031-.842-.2-.9-.835-.231-2.54-.547-5.072-.776-7.612a1.851,1.851,0,0,1,.344-1.207c1.845-2.305,3.728-4.58,5.628-6.84a1.34,1.34,0,0,1,.87-.413c1.07-.049,2.141-.019,3.285-.019v9.269l.337.266a2.707,2.707,0,0,1,.3-.661c2.293-2.78,4.6-5.543,6.893-8.326a1.352,1.352,0,0,1,1.211-.559C969.144,1693.782,970.146,1693.754,971.269,1693.754Zm-8.3,19.676c0-.734-.024-1.425.009-2.116.022-.487-.151-.662-.642-.655-1.448.022-2.9,0-4.347.011a5.737,5.737,0,0,0-.621.068v2.691Zm2.858-2.715v2.711h5.535v-2.711Zm13.983.01h-5.489v2.7h5.489Z" transform="translate(-934.629 -1673.983)" fill="#fff"/>
  <path id="Path_76" data-name="Path 76" d="M947.628,1690.293c-.1-.811-.2-1.57-.278-2.332-.21-1.988-.428-3.976-.6-5.968-.046-.528-.311-.588-.739-.585-1.852.012-3.7,0-5.555,0h-.9a7.5,7.5,0,0,1,4.169-5.382,7.078,7.078,0,0,1,5.256-.445.856.856,0,0,0,.986-.217,8.414,8.414,0,0,1,10.308-1.213,1.086,1.086,0,0,0,.91-.016,7.422,7.422,0,0,1,8.528.267.9.9,0,0,0,1.011.09,6.8,6.8,0,0,1,8.945,9.1,6.706,6.706,0,0,1-6.858,3.849,9.9,9.9,0,0,1-2.423-.718.978.978,0,0,0-1.024.024,7.558,7.558,0,0,1-6.9.706,1,1,0,0,0-.828.158,8.463,8.463,0,0,1-9.577,1.349,1.063,1.063,0,0,0-.859.068A8.177,8.177,0,0,1,947.628,1690.293Z" transform="translate(-934.133 -1672.922)" fill="#fff"/>
  <path id="Path_77" data-name="Path 77" d="M947.693,1721.8H933.842c.12-1.5.237-2.962.354-4.425l1.6-20.114c.115-1.445.239-2.89.339-4.337.033-.484.2-.687.73-.681q3.527.04,7.056,0c.5,0,.7.143.749.661q.962,9.362,1.964,18.72c.331,3.107.679,6.211,1.015,9.317C947.681,1721.215,947.678,1721.486,947.693,1721.8Z" transform="translate(-933.842 -1673.907)" fill="#fff"/>
  <path id="Path_78" data-name="Path 78" d="M944.41,1689.049h-7.818c.1-1.323.181-2.607.311-3.887.012-.125.309-.317.476-.319q3.075-.033,6.15,0c.162,0,.446.2.464.339C944.156,1686.441,944.272,1687.705,944.41,1689.049Z" transform="translate(-933.982 -1673.529)" fill="#fff"/>
</svg>
