<svg xmlns="http://www.w3.org/2000/svg" width="40.055" height="48" viewBox="0 0 40.055 48">
  <path id="Path_68" data-name="Path 68" d="M1489.172,1677.264c-.258-.066-.428-.1-.592-.153a1.959,1.959,0,0,1-1.377-2.143,1.917,1.917,0,0,1,1.85-1.742q6.107-.03,12.215,0a1.917,1.917,0,0,1,1.865,1.726,1.961,1.961,0,0,1-1.356,2.157c-.187.06-.378.1-.609.168v.767c0,3.023.015,6.046-.007,9.068a6.539,6.539,0,0,0,1.192,3.865q5.568,8.08,11.119,16.171a8.444,8.444,0,0,1,.713,9.137,8.629,8.629,0,0,1-8.019,4.885c-6.819.072-13.64.029-20.46.016a12.624,12.624,0,0,1-5.577-1.256,8.4,8.4,0,0,1-3.319-12.71q5.568-8.078,11.127-16.165a6.745,6.745,0,0,0,1.242-4C1489.155,1683.809,1489.172,1680.563,1489.172,1677.264Zm6.446,39.923q5.1,0,10.193,0a5.049,5.049,0,0,0,4.849-2.8c.945-1.859.491-3.6-.666-5.268-3.533-5.085-6.985-10.227-10.554-15.285a11.971,11.971,0,0,1-2.294-7.427c.066-2.821,0-5.646.026-8.468,0-.556-.159-.753-.723-.726a23.453,23.453,0,0,1-2.472,0c-.612-.034-.819.155-.812.79.032,2.922-.013,5.845.022,8.768a11.3,11.3,0,0,1-2.114,6.805q-5.531,7.923-10.956,15.918c-1.865,2.734-.976,5.816,2.116,6.967a13.379,13.379,0,0,0,4.169.7C1489.471,1717.257,1492.546,1717.188,1495.618,1717.187Z" transform="translate(-1475.151 -1673.211)" fill="#fff"/>
</svg>
