<svg xmlns="http://www.w3.org/2000/svg" width="64.12" height="60.117" viewBox="0 0 64.12 60.117">
  <g id="Group_351" data-name="Group 351" transform="translate(-789.797 -530.949)">
    <path id="Path_185" data-name="Path 185" d="M801.051,572.266c-1.88,0-3.58.008-5.279,0a5.644,5.644,0,0,1-5.971-5.96q-.007-14.677,0-29.354a5.655,5.655,0,0,1,5.951-5.993q20.488-.015,40.976,0a5.648,5.648,0,0,1,5.928,5.932q.032,14.728,0,29.455a5.631,5.631,0,0,1-5.93,5.917c-6.746.014-13.492.021-20.237-.013a3.335,3.335,0,0,0-2.567,1.081c-3.071,3.114-6.177,6.194-9.263,9.294a2.074,2.074,0,0,1-2.4.762,2.118,2.118,0,0,1-1.214-2.3c.02-2.538.006-5.076.006-7.614Zm15.2-22.51H800.029c-1.843,0-2.729.627-2.7,1.905.03,1.236.9,1.834,2.688,1.835q16.223,0,32.447,0a6.325,6.325,0,0,0,1.1-.054,1.81,1.81,0,0,0,1.542-1.919c-.054-1.089-.841-1.76-2.13-1.761Q824.614,549.748,816.253,549.756Zm-3.813-3.774h4.409c2.906,0,5.811.01,8.716-.006a1.933,1.933,0,0,0,2.059-1.867,1.976,1.976,0,0,0-2.05-1.9c-.2-.008-.4,0-.6,0H799.925a5.886,5.886,0,0,0-1,.035,1.868,1.868,0,0,0-1.4,2.671,1.979,1.979,0,0,0,1.985,1.071C803.823,545.973,808.131,545.981,812.439,545.981Zm-3.7,15.028c3.039,0,6.077,0,9.116,0,1.383,0,2.228-.73,2.227-1.88s-.852-1.885-2.234-1.886q-9.115-.01-18.231,0c-1.389,0-2.255.714-2.285,1.844-.031,1.169.855,1.921,2.292,1.924Q804.18,561.016,808.738,561.01Z" fill="#fff"/>
    <path id="Path_186" data-name="Path 186" d="M893.557,553.83c4.206-.86,7.485,1.774,7.486,5.91q.006,14.626,0,29.252a5.68,5.68,0,0,1-5.949,6.01c-1.727.027-3.456,0-5.3,0v1.271q0,3.907,0,7.814a1.98,1.98,0,0,1-1.186,2.019,1.886,1.886,0,0,1-2.25-.6c-3.255-3.26-6.519-6.513-9.753-9.794a2.217,2.217,0,0,0-1.747-.73c-4.508.033-9.016.017-13.524.017h-1.056l-.1-.254c1.233-1.144,2.448-2.309,3.717-3.412.2-.174.644-.087.975-.087q9.367-.006,18.733,0c5.94,0,9.94-3.978,9.95-9.919q.023-13.123,0-26.247Z" transform="translate(-47.129 -15.213)" fill="#fff"/>
  </g>
</svg>
