<svg xmlns="http://www.w3.org/2000/svg" width="69.545" height="61.101" viewBox="0 0 69.545 61.101">
  <g id="Group_350" data-name="Group 350" transform="translate(-693.24 -273.683)">
    <path id="Path_181" data-name="Path 181" d="M708.008,393.365l16.186-24.3h-30.84v-4.088H762.8v4H731.875l16.243,24.386Z" transform="translate(-0.073 -58.58)" fill="#fff"/>
    <path id="Path_182" data-name="Path 182" d="M828.89,283.468a11.476,11.476,0,0,1-3.805,8.378c-3.365,3.23-6.925,6.261-10.446,9.327-2.018,1.757-2.085,1.746-4.1.021-3.215-2.758-6.448-5.5-9.558-8.373a13.676,13.676,0,0,1-4.536-7.492,9.926,9.926,0,0,1,4.023-10.1,9.706,9.706,0,0,1,10.751.245,1.981,1.981,0,0,0,2.688.029A9.462,9.462,0,0,1,824,274.833,9.561,9.561,0,0,1,828.89,283.468Z" transform="translate(-66.105)" fill="#fff"/>
    <path id="Path_183" data-name="Path 183" d="M713.689,281.889h8.017v8.117H693.376v-8.085h6.639c1.423,0,1.424,0,1.425-1.41,0-1.956.02-3.912-.009-5.868-.01-.646.191-.895.866-.89q5.271.038,10.542,0c.671,0,.872.247.861.9-.031,1.991-.011,3.984-.011,5.976Zm-4.158-3.912c-3.759-.608-4.258-.2-4.031,3.178.005.072-.026.17.011.212.165.189.341.51.525.517,1.143.048,2.29.024,3.494.024Z" transform="translate(-0.087 -0.045)" fill="#fff"/>
    <path id="Path_184" data-name="Path 184" d="M693.24,338.894V330.9h28.4v7.995Z" transform="translate(0 -36.711)" fill="#fff"/>
  </g>
</svg>
