<svg xmlns="http://www.w3.org/2000/svg" width="72.738" height="61.101" viewBox="0 0 72.738 61.101">
  <g id="Group_348" data-name="Group 348" transform="translate(-532 -752.793)">
    <path id="Path_173" data-name="Path 173" d="M642.639,851.764h-1.365c-5.945,0-11.89-.035-17.833.03-1.2.013-1.438-.38-1.432-1.49.036-7.08.088-14.162-.034-21.24a19.876,19.876,0,0,0-7.021-14.848c-.14-.127-.289-.245-.42-.381-.045-.047-.049-.133-.1-.3a4.7,4.7,0,0,1,.727-.117c3.332-.007,6.664-.028,10,.021a2.193,2.193,0,0,1,1.37.577,16.281,16.281,0,0,0,16.481,4.4,3.923,3.923,0,0,1,.442-.1,1.426,1.426,0,0,1,.332.061c-2.87,3.984-3.385,8.156-.713,12.359s6.909,5.06,11.583,4.646c.031.529.067.862.067,1.2q.006,6.247,0,12.495c0,1.943-.735,2.668-2.683,2.684-1.655.014-3.31,0-5.109,0v-1.346c0-3.18.006-6.361,0-9.542,0-1.614-.883-2.633-2.2-2.6-1.278.035-2.069,1.015-2.072,2.6C642.634,844.43,642.639,847.985,642.639,851.764Z" transform="translate(-51.539 -37.9)" fill="#fff"/>
    <path id="Path_174" data-name="Path 174" d="M536.426,840.569c.7,0,1.489,0,2.275,0,4.266.028,7.608-1.684,9.61-5.488a9.929,9.929,0,0,0-.919-11.109,2.463,2.463,0,0,1-.176-.29c-.015-.03,0-.074,0-.181,1.288.211,2.558.48,3.841.617a15.3,15.3,0,0,0,9.787-2.194,1.326,1.326,0,0,1,1.8.12,16.286,16.286,0,0,1,6.23,13.065c.026,6.892,0,13.785.016,20.677,0,.694-.076,1.136-.962,1.132-6.287-.029-12.573-.015-18.859-.02a7.165,7.165,0,0,1-.792-.1v-1.246c0-3.219.007-6.438,0-9.656a2.2,2.2,0,0,0-2.078-2.476A2.219,2.219,0,0,0,544,845.911c-.013,3.219,0,6.438,0,9.657v1.277c-2.11,0-4.072.073-6.025-.029a1.811,1.811,0,0,1-1.734-1.931c-.039-4.657-.009-9.314,0-13.971C536.241,840.849,536.308,840.784,536.426,840.569Z" transform="translate(-2.638 -43.04)" fill="#fff"/>
    <path id="Path_175" data-name="Path 175" d="M559.814,752.794a12.068,12.068,0,1,1-12.227,11.9A12.07,12.07,0,0,1,559.814,752.794Z" transform="translate(-9.745 0)" fill="#fff"/>
    <path id="Path_176" data-name="Path 176" d="M658.194,752.8a12.068,12.068,0,1,1-12.079,12.055A12.038,12.038,0,0,1,658.194,752.8Z" transform="translate(-71.352 -0.002)" fill="#fff"/>
    <path id="Path_177" data-name="Path 177" d="M708.366,835.7c0,.946.02,1.893-.006,2.838a2.015,2.015,0,0,1-1.723,2.087,10.494,10.494,0,0,1-5.362-.487,6.019,6.019,0,0,1,2.323-11.5,4.59,4.59,0,0,1,4.767,4.569C708.376,834.039,708.367,834.872,708.366,835.7Z" transform="translate(-103.635 -47.422)" fill="#fff"/>
    <path id="Path_178" data-name="Path 178" d="M532.006,835.674c0-.719,0-1.438,0-2.157a4.711,4.711,0,0,1,6.212-4.74,6.047,6.047,0,0,1-1.179,11.856,25.6,25.6,0,0,1-2.837.015,2.147,2.147,0,0,1-2.191-2.249C531.991,837.491,532.006,836.582,532.006,835.674Z" transform="translate(0 -47.374)" fill="#fff"/>
  </g>
</svg>
