<svg xmlns="http://www.w3.org/2000/svg" width="70.008" height="61.041" viewBox="0 0 70.008 61.041">
  <g id="Group_349" data-name="Group 349" transform="translate(-570.701 -537.181)">
    <path id="Path_179" data-name="Path 179" d="M611.684,560.7c-3.995-.667-5.563-2.552-5.157-6.359.353-3.3-.037-6.671.12-10,.214-4.519,2.657-7.016,7.145-7.068q14.6-.171,29.2,0c4.7.057,7.071,2.643,7.114,7.455q.1,10.878,0,21.758c-.044,5.027-2.362,7.344-7.5,7.547-2.832.113-5.673.021-9.166.021,2.343,6.393,4.522,11.873,6.312,17.478.612,1.915.248,4.14.33,6.223-1.331-1.554-3.132-2.906-3.9-4.7-2.111-4.918-3.769-10.031-5.656-15.048-.48-1.275-1.144-2.482-2.338-5.033-2.365,6.334-4.257,11.4-6.145,16.465a30.332,30.332,0,0,1-2.028,5.258c-.748,1.23-2.177,2.046-3.3,3.046-.159-1.414-.794-2.983-.4-4.218,1.69-5.236,3.706-10.365,5.562-15.549.54-1.509,1.825-2.995-.6-4.418-.611-.358-.342-2.953.15-4.288,1-2.706,2.558-5.2,3.639-7.881,1.326-3.288.436-6.1-2.772-7.72-3.237-1.64-5.938-.515-7.9,2.372C613.414,557.46,612.645,559.022,611.684,560.7Zm16.465-10.562c3.329,0,6.674.185,9.978-.106,1.08-.1,2.05-1.432,3.07-2.2-.991-.627-1.97-1.772-2.978-1.8q-9.763-.248-19.535-.008c-1.031.025-2.036,1.115-3.054,1.713.989.8,1.921,2.184,2.977,2.287C621.761,550.327,624.964,550.131,628.148,550.135Zm5.877,8.438.361-.752a8.057,8.057,0,0,0,2.591-.049,41.886,41.886,0,0,0,4.255-2.049,37.989,37.989,0,0,0-4.1-2.043,4.955,4.955,0,0,0-2.584-.023c-2.131.447-5.439-1.509-5.861,2.17C628.6,556.529,632.151,557.646,634.025,558.572Zm1.428,1.963-.308.757a19.141,19.141,0,0,0-4.3.084c-.91.214-1.63,1.226-2.436,1.88.779.677,1.465,1.716,2.359,1.945a11.132,11.132,0,0,0,4.29.111c2.165-.322,5.41,1.387,5.865-2.226C641,562.474,637.37,561.4,635.453,560.535Z" transform="translate(-9.443)" fill="#fff"/>
    <path id="Path_180" data-name="Path 180" d="M580.648,560.741c-6.177-5.989-7.085-11.187-2.875-15.323a8.8,8.8,0,0,1,12.5.144c4.077,4.2,3.221,9.287-2.567,14.634,4.584,2.222,9.148,4.354,13.63,6.645,1.972,1.008,3.182.752,4.105-1.334a36.747,36.747,0,0,1,3.055-5.732c.4-.592,1.662-.6,2.53-.88.27.879.988,1.917.74,2.61-1.694,4.717-3.395,9.453-5.489,14-1.506,3.268-4.574,3.209-7.53,2.2-1.855-.634-3.588-1.63-6.1-2.8,0,7.074-.146,13.4.055,19.707.118,3.7-1.087,5.54-4.972,5.035a6.723,6.723,0,0,0-.87,0c-10.952.036-10.947.035-11.545-10.936-.047-.852.057-2.184-.414-2.471-5.8-3.556-3.98-9.261-3.742-14.189C571.436,566.321,575.59,562.98,580.648,560.741Z" transform="translate(0 -1.506)" fill="#fff"/>
  </g>
</svg>
